<svg id="Layer_1" data-name="Layer 1" xmlns="http://www.w3.org/2000/svg" viewBox="0 0 56.4 56.58"><defs><style>.cls-1{fill:#fff;}</style></defs><path class="cls-1" d="M56,34.35V28.68q0-.32,0-.63A3,3,0,0,0,53,25.46a2.86,2.86,0,0,0-1.61.5,3,3,0,0,0-1.3,2.67q0,10,0,20a5.62,5.62,0,0,1-5.79,5.8H15.42A5.59,5.59,0,0,1,9.64,48.7q0-14.34,0-28.69A6.38,6.38,0,0,1,10,18a5.62,5.62,0,0,1,5.59-3.8H35.87c.29,0,.58,0,.86,0a2.91,2.91,0,0,0,1.84-4.83,3.24,3.24,0,0,0-2.43-1H26.7c-3.75,0-7.5,0-11.26,0a11.9,11.9,0,0,0-2.55.26A11.39,11.39,0,0,0,3.83,19.88c0,8.9,0,18.36,0,28.92a11.32,11.32,0,0,0,7.79,10.87,13.58,13.58,0,0,0,1.75.44l.79.17h31.5l.48-.14.93-.24a10.23,10.23,0,0,0,2.12-.67,11.11,11.11,0,0,0,6.74-10.65C56,43.85,56,39,56,34.35Z" transform="translate(-3.8 -3.71)"/><path class="cls-1" d="M53.31,3.71a6.85,6.85,0,0,1,6.16,4.11,6.5,6.5,0,0,1-.95,7.38c-2.62,3-5.39,5.95-8.09,8.92Q42,33.3,33.66,42.46a5.06,5.06,0,0,1-1.53,1.1c-2.62,1.19-5.27,2.33-7.91,3.47a3.36,3.36,0,0,1-4.64-4.19c.93-2.84,1.87-5.67,2.84-8.5a3.62,3.62,0,0,1,.73-1.2Q35.44,19.67,47.73,6.22a7.35,7.35,0,0,1,5.58-2.51M33.53,35.46l.56-.6L50.37,17c1.44-1.57,2.89-3.14,4.32-4.73a2.2,2.2,0,0,0-1.22-3.72,2.33,2.33,0,0,0-2.25,1q-8.31,9.12-16.64,18.23l-4.31,4.71,3.26,3M27,36c-.6,1.82-1.18,3.54-1.8,5.39l5.2-2.29L27,36" transform="translate(-3.8 -3.71)"/></svg>