<svg id="Layer_1" data-name="Layer 1" xmlns="http://www.w3.org/2000/svg" viewBox="0 0 219.71 141.06"><defs><style>.cls-1{fill:#fff;}</style></defs><path class="cls-1" d="M112.45,106.36a1.44,1.44,0,0,0,1.62-.12,50,50,0,0,1,31.07-10.41c27.88.14,49.31,22,49.11,50.18a48,48,0,0,1-.44,6.28,1.48,1.48,0,0,0,.71,1.46l40,23.1a1.47,1.47,0,0,0,1.78-.23q5.09-5.2,9.8-11c12.51-15.53,12.59-24.93.25-40.2C223,96.51,193.2,80.21,157.89,75.46a97.4,97.4,0,0,0-25.07-.09,138,138,0,0,0-45.67,13.8,1.46,1.46,0,0,0-.05,2.56Z" transform="translate(-35.85 -74.6)"/><path class="cls-1" d="M182.22,179.72a1.49,1.49,0,0,0-1.83.26,49.2,49.2,0,0,1-35.69,14.77c-28.08-.15-49.43-21.76-49.36-49.94a50.54,50.54,0,0,1,1.73-13,1.49,1.49,0,0,0-.69-1.69L60,109.15a1.48,1.48,0,0,0-1.76.19A150.2,150.2,0,0,0,42.65,126a30.83,30.83,0,0,0,.46,39.19c30.21,35.75,68.31,55,115.59,49.61a126,126,0,0,0,50.64-16.83,1.5,1.5,0,0,0,0-2.58Z" transform="translate(-35.85 -74.6)"/><rect class="cls-1" x="31.67" y="134" width="234.67" height="20" rx="10" transform="translate(56.11 -129.81) rotate(30)"/></svg>