<svg id="Layer_1" data-name="Layer 1" xmlns="http://www.w3.org/2000/svg" viewBox="0 0 67.6 67.37"><defs><style>.cls-1{fill:none;}.cls-2{fill:#fff;}.cls-3{fill:#c2000b;}</style></defs><rect class="cls-1" x="0.12" width="67.37" height="67.37"/><rect class="cls-1" x="0.12" width="67.37" height="67.37"/><path class="cls-2" d="M58.48,19.83a7.29,7.29,0,0,0-3,.67l-4,1.83a13.25,13.25,0,0,0-11.89-7.41H11.45A13.26,13.26,0,0,0-1.8,28.16V49.39A13.26,13.26,0,0,0,11.45,62.64h28.1a13.25,13.25,0,0,0,11.69-7l4.24,1.91a7.22,7.22,0,0,0,3,.64,7.32,7.32,0,0,0,7.32-7.32V27.15A7.33,7.33,0,0,0,58.48,19.83Zm1,31a1,1,0,0,1-1.42.92L47.47,47a.7.7,0,0,0-1,.64v1.77a6.93,6.93,0,0,1-6.93,6.93H11.45a6.94,6.94,0,0,1-6.94-6.93V28.16a6.94,6.94,0,0,1,6.94-6.93h28.1a6.93,6.93,0,0,1,6.93,6.93v2.29a.7.7,0,0,0,1,.64l10.58-4.85a1,1,0,0,1,1.43.91Z" transform="translate(1.8 1.68)"/><circle class="cls-3" cx="56.83" cy="10.53" r="5.85"/></svg>