<svg id="Layer_1" data-name="Layer 1" xmlns="http://www.w3.org/2000/svg" viewBox="0 0 47.92 48.8"><defs><style>.cls-1{fill:#fff;}</style></defs><path class="cls-1" d="M32.41,56.4A24,24,0,0,1,22,54,24.4,24.4,0,0,1,9.74,40.89a24.41,24.41,0,0,1,11.58-30.6,24,24,0,0,1,11-2.69,26.79,26.79,0,0,1,3.32.21A25.11,25.11,0,0,1,48.71,13.7a2.18,2.18,0,0,0,1.38.49,2.12,2.12,0,0,0,1.54-.65L54,11.1a1.14,1.14,0,0,1,2,.79V25.42a1.14,1.14,0,0,1-1.14,1.14H41.7a1.15,1.15,0,0,1-.8-2l3.06-3a2.21,2.21,0,0,0,.66-1.55A2.14,2.14,0,0,0,44,18.54a17.21,17.21,0,0,0-11.89-4.63A17.6,17.6,0,0,0,20,18.69a18.09,18.09,0,0,0-5.85,12.85,18.32,18.32,0,0,0,5.14,13.34,18.44,18.44,0,0,0,13.11,5.37A18.08,18.08,0,0,0,46.13,44a1.46,1.46,0,0,1,1.79-.3l2.91,1.56a1.49,1.49,0,0,1,.48,2.23A24.53,24.53,0,0,1,32.41,56.4Z" transform="translate(-8.04 -7.6)"/></svg>