<?xml version="1.0" encoding="UTF-8" standalone="no"?>
<svg
   version="1.1"
   viewBox="-10 0 1200 1200"
   id="svg1"
   sodipodi:docname="tmp.FMDczsMe7W.svg"
   width="1200"
   height="1200"
   xmlns:inkscape="http://www.inkscape.org/namespaces/inkscape"
   xmlns:sodipodi="http://sodipodi.sourceforge.net/DTD/sodipodi-0.dtd"
   xmlns="http://www.w3.org/2000/svg"
   xmlns:svg="http://www.w3.org/2000/svg">
  <defs
     id="defs1" />
  <sodipodi:namedview
     id="namedview1"
     pagecolor="#ffffff"
     bordercolor="#000000"
     borderopacity="0.25"
     inkscape:showpageshadow="2"
     inkscape:pageopacity="0.0"
     inkscape:pagecheckerboard="0"
     inkscape:deskcolor="#d1d1d1" />
  <path
     fill="#ffffff"
     d="M 590,0 Q 342,0 166,176 -10,352 -10,600 q 0,248 176,424 176,176 424,176 40,0 70,-29.5 30,-29.5 30,-69.5 0,-42 -26,-67 -26,-37 -26,-67 0,-39 29,-69 29,-30 69,-30 h 120 q 142,0 238,-98 96,-98 96,-237 0,-221 -176,-377 Q 838,0 590,0 Z M 223,600 q -39,0 -69,-30 -30,-30 -30,-69.5 0,-39.5 30,-70.5 30,-31 69,-31 39,0 69,29.5 30,29.5 30,72.5 0,39 -30,69 -30,30 -69,30 z M 424,332 q -42,0 -72,-30 -30,-30 -30,-69.5 0,-39.5 31,-69 31,-29.5 71,-29.5 40,0 70,29.5 30,29.5 30,69 0,39.5 -31,69.5 -31,30 -69,30 z m 332,0 q -38,0 -69,-30 -31,-30 -31,-69.5 0,-39.5 30,-69 30,-29.5 70,-29.5 40,0 70,29.5 30,29.5 30,69 0,39.5 -29,69.5 -29,30 -71,30 z m 201,268 q -39,0 -70,-30 -31,-30 -31,-69.5 0,-39.5 31,-70.5 31,-31 70,-31 39,0 69,31 30,31 30,70.5 0,39.5 -30,69.5 -30,30 -69,30 z"
     id="path1" />
</svg>
