<?xml version="1.0" encoding="UTF-8" standalone="no"?>
<svg
   version="1.1"
   viewBox="-10 0 1199.2 1272"
   id="svg1"
   sodipodi:docname="tmp.smSd877pDy.svg"
   width="1199.2"
   height="1272"
   xmlns:inkscape="http://www.inkscape.org/namespaces/inkscape"
   xmlns:sodipodi="http://sodipodi.sourceforge.net/DTD/sodipodi-0.dtd"
   xmlns="http://www.w3.org/2000/svg"
   xmlns:svg="http://www.w3.org/2000/svg">
  <defs
     id="defs1" />
  <sodipodi:namedview
     id="namedview1"
     pagecolor="#ffffff"
     bordercolor="#000000"
     borderopacity="0.25"
     inkscape:showpageshadow="2"
     inkscape:pageopacity="0.0"
     inkscape:pagecheckerboard="0"
     inkscape:deskcolor="#d1d1d1" />
  <path
     fill="#ffffff"
     d="m 1185.6,413 q 6,16 2,33 -4,17 -18,29 l -107,98 q 4,31 4,63 0,32 -4,63 l 107,98 q 13,12 18,28 4,17 -2,33 -16,43 -39,85 l -12,20 q -23,39 -55,78 -11,13 -28,18 -17,5 -33,-1 l -138,-44 q -53,41 -109,63 l -31,142 q -3,17 -16,30 -12,12 -29,14 -52,8 -106,9 -54,0 -106,-9 -17,-3 -29,-14 -12,-12 -16,-30 l -31,-142 q -57,-23 -109,-63 l -138,44 q -39,12 -62,-17 -28,-34 -54,-78 l -12,-20 q -23,-42 -39,-85 -6,-16 -2,-32 4,-17 18,-29 l 107,-98 q -4,-31 -4,-63 0,-32 4,-63 L 9.6,475 q -13,-12 -18,-29 -4,-17 2,-33 15,-41 39,-85 l 12,-20 q 25,-41 54,-77 11,-13 28,-18 17,-5 34,0 l 138,44 q 50,-39 109,-62 l 31,-142 q 3,-17 16,-30 12,-12 30,-14 50,-9 105,-9 54,0 106,8 17,3 29,15 12,12 16,29 l 31,142 q 57,23 110,63 l 138,-44 q 17,-6 33,0 17,5 28,18 32,39 55,77 l 11,20 q 23,42 39,85 z m -596,422 q 82,0 141,-59 59,-58 58,-140 0,-82 -58,-141 -59,-59 -141,-58 -82,0 -140,58 -58,59 -58,141 0,82 58,140 58,59 140,59 z"
     id="path1" />
</svg>
