<?xml version="1.0" encoding="UTF-8" standalone="no"?>
<svg
   version="1.1"
   viewBox="-10 0 1200 1274"
   id="svg1"
   sodipodi:docname="tmp.cxT7H5ZyOy.svg"
   width="1200"
   height="1274"
   xmlns:inkscape="http://www.inkscape.org/namespaces/inkscape"
   xmlns:sodipodi="http://sodipodi.sourceforge.net/DTD/sodipodi-0.dtd"
   xmlns="http://www.w3.org/2000/svg"
   xmlns:svg="http://www.w3.org/2000/svg">
  <defs
     id="defs1" />
  <sodipodi:namedview
     id="namedview1"
     pagecolor="#ffffff"
     bordercolor="#000000"
     borderopacity="0.25"
     inkscape:showpageshadow="2"
     inkscape:pageopacity="0.0"
     inkscape:pagecheckerboard="0"
     inkscape:deskcolor="#d1d1d1" />
  <path
     fill="#ffffff"
     d="M 930,182 822,292 q 100,58 159,160 59,102 59,223 0,121 -60,225 -60,104 -163,163 -103,59 -226,59 -123,0 -227,-59 Q 260,1004 201,900 142,796 142,675 142,554 200,453 258,352 356,292 L 250,182 q -118,84 -189,212 -71,128 -71,280 0,162 81,300 81,138 219,219 138,81 300,81 162,0 300,-81 138,-81 219,-219 81,-138 81,-300 0,-152 -70,-280 Q 1050,266 930,182 Z M 664,0 H 516 v 748 h 148 z"
     id="path1" />
</svg>
