<svg id="Layer_1" data-name="Layer 1" xmlns="http://www.w3.org/2000/svg" viewBox="0 0 220.12 140.97"><defs><style>.cls-1{fill:#fff;}</style></defs><path class="cls-1" d="M129.64,75.81a105.78,105.78,0,0,1,32.41.27c33.49,5.44,61.91,21.57,84.32,49.31,12.34,15.27,12.26,24.67-.25,40.2-22.51,27.91-51.82,45.14-87.42,49.18C111,220.19,72.58,200.54,42.24,164.13a29.46,29.46,0,0,1-.36-37.2C65,97.87,94.26,81.05,129.64,75.81Zm15.5,20c-27.81-.13-49.73,21.43-49.8,49-.07,28.18,21.28,49.79,49.36,49.94A48.87,48.87,0,0,0,194.25,146C194.45,117.86,173,96,145.14,95.83Z" transform="translate(-35.45 -74.69)"/><path class="cls-1" d="M145,110c19.3.16,35.48,16.62,35.08,35.69a35.62,35.62,0,0,1-35.31,35c-19.3,0-35.44-16.18-35.34-35.44S125.77,109.82,145,110Z" transform="translate(-35.45 -74.69)"/></svg>