<svg id="Layer_1" data-name="Layer 1" xmlns="http://www.w3.org/2000/svg" viewBox="0 0 192.59 186.97"><defs><style>.cls-1{fill:#fff;}</style></defs><path class="cls-1" d="M144.26,237.71q-37.95,0-75.91,0A20.14,20.14,0,0,1,48,217.51q0-45.46,0-90.94a20,20,0,0,1,19.89-20.19c7-.09,13.89,0,20.84,0a7.49,7.49,0,1,1-.09,15c-6.57,0-13.14,0-19.71,0-3.82,0-5.93,2-5.93,5.85q0,44.91,0,89.81c0,3.6,2.16,5.72,5.75,5.72h151c3.77,0,5.78-2.14,5.78-6.18q0-29.55,0-59.12V127.72c0-4.5-1.87-6.36-6.39-6.36-6.57,0-13.13,0-19.7,0a7.44,7.44,0,0,1-7.3-6.68,7.6,7.6,0,0,1,5.41-8,9.57,9.57,0,0,1,2.72-.27c6.62,0,13.24,0,19.86,0a20.11,20.11,0,0,1,20.42,20.5q0,45,0,90c0,12.16-8.71,20.86-20.85,20.87Z" transform="translate(-47.96 -50.75)"/><path class="cls-1" d="M134.58,162V150q0-44.65,0-89.31A9.67,9.67,0,0,1,149,52a9.21,9.21,0,0,1,5,8.46q0,40.79,0,81.56v19.8c.78-.14.93-.78,1.21-1.22C161.11,151.31,167,142,173,132.72a9.68,9.68,0,0,1,17.64,2.73,8.67,8.67,0,0,1-.9,7q-8.59,13.65-17.27,27.24-9.73,15.33-19.51,30.63c-4.48,7-12.78,7.06-17.27,0q-16.41-25.71-32.74-51.46c-1.24-1.95-2.52-3.88-3.73-5.84a9.69,9.69,0,1,1,16.36-10.4c6,9.28,11.85,18.59,17.79,27.88C133.62,161,133.76,161.65,134.58,162Z" transform="translate(-47.96 -50.75)"/></svg>