<?xml version="1.0" encoding="UTF-8"?>
<svg id="Layer_1" xmlns="http://www.w3.org/2000/svg" version="1.1" viewBox="0 75 450 325">
  <defs>
    <style>
      .st0 { fill: #f2f2f2; }
      .st1 { fill: #01a0c6; }
    </style>
  </defs>
  <path class="st1" d="M385.41,158.33l3.04-6.52c1.1-2.35-.62-5.05-3.22-5.05h-35.47c-1.38,0-2.63.8-3.22,2.05l-3.05,6.52c-1.1,2.35.62,5.06,3.22,5.06h35.49c1.38,0,2.64-.8,3.22-2.05Z"/>
  <path class="st0" d="M328.07,188.27l-20.11,42.97c-1.23,2.63-4.97,2.62-6.19,0l-30.12-64.72c-2.84-5.98-7.03-10.73-12.57-14.25-5.54-3.51-11.59-5.35-18.18-5.5-6.58,0-12.68,1.79-18.29,5.39-5.61,3.59-9.76,8.38-12.45,14.36l-30.33,64.73c-1.23,2.62-4.96,2.62-6.19,0l-38.4-82.5c-.56-1.2-1.77-1.97-3.1-1.97h-41.13,0s-28.62.01-28.62.01c-1.89,0-3.41,1.53-3.41,3.41v133.91c0,5.54,1.91,10.21,5.72,14.02,3.81,3.81,8.49,5.72,14.02,5.72h98.06c1.75,0,3.53-.22,5.33-.68,5.98-1.8,10.24-5.53,12.79-11.22l42.9-92.08c1.23-2.63,4.97-2.63,6.19,0l43.13,92.75c1.64,3.44,4.07,6.17,7.29,8.19,3.21,2.02,6.73,3.03,10.55,3.03s7.33-1.01,10.55-3.03c3.22-2.02,5.64-4.75,7.29-8.19l47.29-101.45c1.06-2.26-.6-4.86-3.09-4.86h-35.85c-1.33,0-2.53.77-3.09,1.97ZM104.77,176.24l38.91,83.47c1.06,2.26-.6,4.86-3.09,4.86h-38.91c-1.89,0-3.41-1.53-3.41-3.41v-83.47c0-3.65,4.97-4.75,6.51-1.44Z"/>
  <path class="st1" d="M376.1,178.3l3.23-6.93c1.1-2.35-.62-5.05-3.22-5.05h-35.51c-1.38,0-2.63.8-3.22,2.05l-3.24,6.93c-1.1,2.35.62,5.06,3.22,5.06h35.52c1.38,0,2.64-.8,3.22-2.05Z"/>
</svg>