<svg id="Layer_1" data-name="Layer 1" xmlns="http://www.w3.org/2000/svg" viewBox="0 0 52.49 57.09"><defs><style>.cls-1{fill:#fff;}</style></defs><path class="cls-1" d="M28.79,22.63v.13c0,2.11,0,4.21,0,6.32q0,.48,0,1A3.29,3.29,0,0,0,32,32.92a2.82,2.82,0,0,0,.71-.09,3.26,3.26,0,0,0,2.49-3.35c0-6.67,0-14.58,0-22.59a4.2,4.2,0,0,0-.36-1.63,3.1,3.1,0,0,0-2.21-1.75l-.19-.06h-.9l-.19.06c-1,.27-2.65,1.16-2.61,4C28.82,12.52,28.81,17.66,28.79,22.63Z" transform="translate(-5.76 -3.45)"/><path class="cls-1" d="M58.07,31.23A25.66,25.66,0,0,0,54,20a23,23,0,0,0-6.67-6.89,2.79,2.79,0,0,0-1.55-.46,3.21,3.21,0,0,0-3.13,2.5,3.43,3.43,0,0,0,1.48,3.58A19.15,19.15,0,0,1,51.72,35.2a18.71,18.71,0,0,1-5.83,13.12c-4.07,3.86-8.62,5.82-13.51,5.82a21,21,0,0,1-7.26-1.38C17.74,50,13.33,44.29,12.36,36.24A18.55,18.55,0,0,1,16.59,22a27,27,0,0,1,2.73-2.72l1.1-1a3,3,0,0,0,.95-2.79,3.07,3.07,0,0,0-3.09-2.75,3.55,3.55,0,0,0-2.18.78C9.35,18.73,6,25.53,5.76,34.27A25.82,25.82,0,0,0,7.7,44.13,26.35,26.35,0,0,0,31.89,60.55a26.08,26.08,0,0,0,3.75-.28,25.57,25.57,0,0,0,18-11.18A25.78,25.78,0,0,0,58.07,31.23Z" transform="translate(-5.76 -3.45)"/></svg>