<?xml version="1.0" encoding="utf-8"?>
<svg viewBox="0 0 500 500" xmlns="http://www.w3.org/2000/svg">
  <path class="cls-1" d="M 26.755 42.017 L 424.88 246.951 C 427.017 248.063 427.148 251.068 425.115 252.36 C 425.041 252.409 424.962 252.455 424.88 252.497 L 30.941 461.763 C 22.586 466.21 19.087 476.35 22.919 485.002 L 22.919 485.002 C 27.146 494.532 38.555 498.499 47.781 493.643 L 487.67 262.67 C 497.6 257.463 498.171 243.454 488.695 237.458 C 488.36 237.246 488.019 237.048 487.67 236.864 L 45.951 5.065 C 37.102 0.412 26.156 3.852 21.561 12.732 L 18.997 17.718 C 14.434 26.571 17.905 37.443 26.755 42.017 Z" style="fill: rgb(255, 255, 255);" transform="matrix(-1, 0, 0, -1, 512.459805, 498.711853)"/>
</svg>