<svg id="Layer_1" data-name="Layer 1" xmlns="http://www.w3.org/2000/svg" viewBox="0 0 49.18 49.17"><defs><style>.cls-1{fill:#fff;}</style></defs><path class="cls-1" d="M55.35,15.54a53.56,53.56,0,0,0-5.69-5.88,10.38,10.38,0,0,0-2.46-1.8,8.25,8.25,0,0,0-1-.34l-.32-.11H12.59c-.46.12-.93.2-1.38.36a5.65,5.65,0,0,0-3.8,5.36V50.77a5.68,5.68,0,0,0,4.53,5.71l.53.11H51.56c.43-.12.87-.2,1.28-.36a5.47,5.47,0,0,0,3.64-4.49,7.75,7.75,0,0,0,.09-1.27q0-15.7,0-31.4A5.41,5.41,0,0,0,55.35,15.54Zm-36.5-2.48H43a3.74,3.74,0,0,1,1.12.14,1.45,1.45,0,0,1,1.16,1.39c0,.87,0,1.74,0,2.61,0,2.5,0,5,0,7.5,0,.95-.87,1.69-2.17,1.68-4,0-8.06,0-12.09,0H18.91A2,2,0,0,1,17,25.53a1.37,1.37,0,0,1-.22-.76q0-5.06,0-10.11C16.82,13.7,17.6,13.09,18.85,13.06ZM50.08,48.9a1.54,1.54,0,0,1-1.34,1.55,3.16,3.16,0,0,1-.69.06H15.87c-1.26,0-2-.62-2-1.64,0-4.79,0-9.57,0-14.36,0-.92.81-1.67,2.07-1.66,5.35,0,10.7,0,16.06,0H48a2.57,2.57,0,0,1,1.14.21,1.46,1.46,0,0,1,.91,1.24c0,.4,0,.79,0,1.19C50.08,40,50.09,44.43,50.08,48.9Z" transform="translate(-7.41 -7.41)"/><path class="cls-1" d="M35.81,19.73c0-1.61,0-3.23,0-4.84,0-.23.07-.31.39-.31h4.87c.29,0,.36.07.36.28q0,4.86,0,9.71c0,.22-.07.29-.36.29h-4.9c-.29,0-.36-.07-.36-.29,0-1.61,0-3.22,0-4.84" transform="translate(-7.41 -7.41)"/></svg>