<?xml version="1.0" encoding="utf-8"?>
<!-- Generator: Adobe Illustrator 24.3.0, SVG Export Plug-In . SVG Version: 6.00 Build 0)  -->
<svg version="1.1" id="Layer_1" xmlns="http://www.w3.org/2000/svg" xmlns:xlink="http://www.w3.org/1999/xlink" x="0px" y="0px"
	 viewBox="0 0 1000 1000" style="enable-background:new 0 0 1000 1000;" xml:space="preserve">
<style type="text/css">
	.st0{fill:#FFFFFF;}
</style>
<g>
	<path class="st0" d="M136.1,433.4v94.9h58v11.6h-70.1V433.4H136.1z"/>
	<path class="st0" d="M219.7,430.1v15.8h-13v-15.8H219.7z M207.2,459.4h12.1v80.4h-12.1V459.4z"/>
	<path class="st0" d="M302.9,472.3v-12.9h12.1v78c0,11.6-3.3,20.4-9.9,26.5c-6.6,6.1-15.5,9.1-26.6,9.1c-11.2,0-19.9-2.1-26.1-6.4
		c-6.3-4.3-10.5-10-12.8-17h13.3c3.4,8.4,11.3,12.5,23.5,12.5c9.3,0,16.1-2.1,20.3-6.4c4.2-4.3,6.3-10.6,6.3-19v-11.1
		c-6.5,9.5-16.1,14.3-28.8,14.3c-11.6,0-21-4-28.3-11.9c-7.1-7.7-10.6-17.4-10.6-28.9s3.5-21.2,10.6-28.9c7.3-7.9,17-11.9,29.2-11.9
		C287.1,458.1,296.4,462.8,302.9,472.3z M275.7,528.9c4.4,0,8.3-0.8,11.7-2.3c3.4-1.6,6.4-3.7,8.8-6.4c4.8-5.6,7.2-12.6,7.2-21.2
		c0-8.6-2.4-15.6-7.2-21.2c-5.3-5.8-12.1-8.7-20.6-8.7c-8.7,0-15.7,2.9-20.9,8.7c-5,5.7-7.6,12.8-7.6,21.2c0,8.5,2.5,15.5,7.6,21.2
		C260,526,267,528.9,275.7,528.9z"/>
	<path class="st0" d="M347.9,427.2v44.7c2.9-3.9,6.4-7.1,10.6-9.8c4.2-2.7,8.9-4,14.3-4c5.4,0,10,0.8,13.8,2.3
		c3.9,1.5,7.2,3.8,10.1,6.8c6.6,6.5,10,15.2,10,25.9v46.8h-12.1v-46.5c0-7.4-2.1-13.3-6.3-17.7c-4.2-4.4-9.6-6.6-16.2-6.6
		c-6.8,0-12.5,2.3-17.2,6.8c-4.7,4.6-7.1,10.5-7.1,17.7v46.3h-12.1V427.2H347.9z"/>
	<path class="st0" d="M433.6,539.8V470h-16.4v-10.6h16.4v-28.8h12.1v28.8h18.5V470h-18.5v69.8H433.6z"/>
	<g>
		<polygon class="st0" points="605,430.9 579.4,514.6 552.6,430.9 535.2,430.9 508.4,514.6 482.8,430.9 465,430.9 499.6,542.2 
			516.9,542.2 543.9,458.4 570.9,542.2 588.1,542.2 622.8,430.9 		"/>
		<path class="st0" d="M686.3,465.6c-6.6-6.6-15.1-10-25.5-10c-12.8,0-23.2,4.3-30.9,12.9c-7.5,8.4-11.2,18.8-11.2,31.1
			c0,12.3,3.8,22.7,11.2,31.1c7.7,8.5,17.9,12.9,30.1,12.9c10.9,0,19.7-3.3,26.3-9.8v8.5h17V457h-17V465.6z M680.3,479.6
			c4.4,5.2,6.7,11.9,6.7,20c0,8-2.2,14.8-6.7,20c-4.6,5.5-10.7,8.1-18.7,8.1c-7.9,0-14.2-2.7-19.1-8.2c-4.7-5.3-6.9-11.8-6.9-19.9
			c0-8.1,2.3-14.7,6.9-19.9c4.9-5.5,11.2-8.2,19.1-8.2C669.6,471.5,675.7,474.2,680.3,479.6z"/>
		<polygon class="st0" points="774.2,457 750.7,520 727,457 708.5,457 741.9,542.2 759.4,542.2 792.7,457 		"/>
		<path class="st0" d="M876.6,499.6c0-12.5-3.8-22.9-11.3-31.1c-8-8.5-18.4-12.8-31.1-12.8c-12.7,0-23.1,4.3-31.1,12.9
			c-7.5,8.1-11.3,18.6-11.3,31.1c0,12.4,4,22.8,11.8,31.1c8.1,8.5,18.6,12.8,31.4,12.8c10,0,18.4-2.4,24.9-7.2
			c6.4-4.8,11.1-11.1,14.1-18.8l1.3-3.3h-18.2l-0.7,1.3c-4.3,8.2-11.2,12.2-21.1,12.2c-7.3,0-13.2-2.2-17.9-6.7
			c-4-3.9-6.6-8.5-7.7-14.1h67V499.6z M834.3,471.5c6.8,0,12.4,2.1,17,6.3c3.7,3.5,6.1,7.7,7.4,13h-48.7c1.3-5.3,3.7-9.5,7.4-12.9
			C821.9,473.6,827.5,471.5,834.3,471.5z"/>
	</g>
</g>
</svg>
