<svg id="Layer_1" data-name="Layer 1" xmlns="http://www.w3.org/2000/svg" viewBox="0 0 51.36 53.52"><defs><style>.cls-1{fill:#fff;}</style></defs><path class="cls-1" d="M52.08,17.48H12.65a2.39,2.39,0,0,0-2.59,2.32l.95,14Q11.51,41,12,48.2c.19,2.64.39,5.28.55,7.93a2.63,2.63,0,0,0,2.18,2.43,5.61,5.61,0,0,0,1.54.19H48c1.91,0,3.15-1,3.31-2.66.07-.7.1-1.41.15-2.12q.38-5.53.77-11.07.45-6.49.91-13l.69-9.69c0-.36.05-.72.07-1.08A1.72,1.72,0,0,0,52.08,17.48ZM21.53,51.6c-.43,0-.86,0-1.29,0-.86,0-1.46-.48-1.5-1.08L17.57,31.78q-.24-3.93-.5-7.88c-.05-.68.56-1.22,1.53-1.29a9.15,9.15,0,0,1,1.57,0c1,.07,1.62.58,1.67,1.28.06.92.08,1.83.12,2.74l.45,10.66h0c.15,3.45.29,6.9.44,10.35L23,50.48C23,51.14,22.45,51.57,21.53,51.6ZM34.14,36.09,34,50.42c0,.76-.59,1.17-1.68,1.18h-1a2,2,0,0,1-1.1-.32,1,1,0,0,1-.4-.78c-.05-.74-.12-6-.15-13.3q-.06-6.59-.11-13.16a1.08,1.08,0,0,1,.3-.89c.84-.85,3.57-.86,4.12,0a1.59,1.59,0,0,1,.31.88Q34.22,30.07,34.14,36.09Zm12.19-6.57c-.16,2.55-.32,5.09-.43,6.73C45.57,41.6,45.29,46,45,50.48c0,.63-.62,1.07-1.51,1.11-.45,0-.89,0-1.34,0-.87,0-1.42-.47-1.39-1.08q.38-8.77.74-17.54.2-4.42.38-8.85c0-1.05.76-1.54,2.27-1.54h.71c1.15,0,1.85.55,1.8,1.35C46.56,25.8,46.45,27.66,46.33,29.52Z" transform="translate(-6.32 -5.24)"/><path class="cls-1" d="M24.48,8.77a11.56,11.56,0,0,1,.1-1.23,2.62,2.62,0,0,1,1.77-2.15,3.42,3.42,0,0,1,1.07-.14h8.93c1.74,0,2.86.85,3.06,2.34.05.38.05.76.08,1.19H55.64c1.26,0,1.92.5,2,1.59a15.06,15.06,0,0,1,0,1.9c-.08,1.1-.74,1.61-2,1.61H8.29c-1.14,0-1.79-.41-1.91-1.37a10.39,10.39,0,0,1,0-2.43c.12-.9.77-1.3,1.83-1.3H24.48Z" transform="translate(-6.32 -5.24)"/></svg>