<?xml version="1.0" encoding="UTF-8" standalone="no"?>
<svg
   version="1.1"
   viewBox="-10 0 1199.0385 1200.7693"
   id="svg1"
   sodipodi:docname="tmp.JpzssKpa02.svg"
   width="1199.0385"
   height="1200.7693"
   xmlns:inkscape="http://www.inkscape.org/namespaces/inkscape"
   xmlns:sodipodi="http://sodipodi.sourceforge.net/DTD/sodipodi-0.dtd"
   xmlns="http://www.w3.org/2000/svg"
   xmlns:svg="http://www.w3.org/2000/svg">
  <defs
     id="defs1" />
  <sodipodi:namedview
     id="namedview1"
     pagecolor="#ffffff"
     bordercolor="#000000"
     borderopacity="0.25"
     inkscape:showpageshadow="2"
     inkscape:pageopacity="0.0"
     inkscape:pagecheckerboard="0"
     inkscape:deskcolor="#d1d1d1" />
  <path
     fill="#ffffff"
     d="m 476,1.3846154 q 35,4 55,33.9999996 21,30 15,64 L 520,257.38462 H 774 L 805,71.384615 q 5,-34 35,-56 29,-19.9999996 63,-13.9999996 35,4 56,33.9999996 21,30 15,64 L 948,257.38462 h 156 q 36,0 61,25 25,25 24,61 0,36 -24,60 -25,26 -61,26 H 920 l -57,342 h 156 q 36,0 60,26 25,24 25,60 0,36 -25,61 -25,25 -60,25 H 834 l -31,185.99998 q -5,34 -34,55 -29,21 -65,15 -35,-4 -55,-34 -21,-30 -15,-64 L 661,943.38462 H 405 l -30,185.99998 q -5,34 -35,56 -29,20 -64,14 -35,-4 -56,-33 -21,-29 -15,-65 L 231,943.38462 H 75 q -36,0 -60,-24 -25,-26 -25,-62 0,-36 25,-61 25,-25 60,-25 h 185 l 58,-342 H 162 q -36,0 -61,-25 -25,-25 -26,-61 0,-36 26,-60 25,-26 61,-26 H 346 L 377,71.384615 q 5,-34 34,-55 29,-20.9999996 64,-14.9999996 z m 15,428.0000046 -57,342 h 255 l 57,-342 z"
     id="path1" />
</svg>
